M48
;DRILL file {KiCad 4.0.0-2.201511301921+6191~38~ubuntu15.10.1-stable} date to 10. joulukuuta 2015 21.00.16
;FORMAT={-:-/ absolute / inch / decimal}
FMAT,2
INCH,TZ
T1C0.014
T2C0.040
T3C0.060
T4C0.157
%
G90
G05
M72
T1
X4.6751Y-3.1232
X4.6871Y-2.5513
X4.7068Y-2.5119
X4.7461Y-2.5513
X4.7855Y-2.5119
X4.8052Y-2.5513
X4.8249Y-2.7088
X4.8249Y-2.7482
X4.8327Y-2.9923
X4.8445Y-2.5119
X4.8642Y-2.5513
X4.8651Y-3.0952
X4.8839Y-2.7088
X4.8891Y-2.622
X4.8997Y-3.9332
X4.9036Y-2.5119
X4.9036Y-2.7482
X4.9154Y-3.6891
X4.9233Y-2.5513
X4.9233Y-2.9805
X4.9233Y-3.1616
X4.9291Y-2.6232
X4.943Y-2.7088
X4.9627Y-2.5119
X4.9627Y-2.9805
X4.9627Y-3.1222
X4.9791Y-2.6232
X5.002Y-2.7088
X5.002Y-2.9805
X5.002Y-3.1616
X5.002Y-3.6891
X5.0335Y-3.9332
X5.0414Y-3.1222
X5.0611Y-2.6104
X5.0611Y-2.6497
X5.0808Y-3.1616
X5.0965Y-3.6891
X5.1005Y-2.6497
X5.1123Y-2.9805
X5.1201Y-2.6104
X5.1201Y-3.1222
X5.1551Y-2.8122
X5.1595Y-3.1616
X5.1753Y-2.9805
X5.1753Y-3.9332
X5.1989Y-3.1222
X5.1989Y-3.6891
X5.2031Y-2.8532
X5.2051Y-2.7922
X5.2071Y-2.6452
X5.2171Y-2.8952
X5.225Y-2.98
X5.2382Y-3.1616
X5.2391Y-2.6912
X5.2776Y-3.1222
X5.2776Y-3.6891
X5.2934Y-2.5572
X5.317Y-3.1616
X5.317Y-3.9332
X5.32Y-3.0725
X5.3367Y-2.5592
X5.3564Y-3.1222
X5.3957Y-3.1616
X5.4351Y-2.9292
X5.4525Y-2.695
X5.4745Y-3.9332
X5.4981Y-2.8348
X5.506Y-3.2954
X5.5138Y-3.2245
X5.5291Y-2.6332
X5.5375Y-2.8348
X5.5808Y-2.8348
X5.5827Y-2.4824
X5.6005Y-2.7757
X5.6162Y-3.9332
X5.6516Y-2.4824
X5.6713Y-3.0041
X5.6713Y-3.6438
X5.6713Y-3.6931
X5.691Y-2.9647
X5.7107Y-2.4824
X5.7205Y-3.6438
X5.7205Y-3.6931
X5.7304Y-3.0041
X5.7402Y-2.9647
X5.7599Y-2.4824
X5.7697Y-3.6438
X5.7697Y-3.6931
X5.7796Y-3.0041
X5.7816Y-3.9332
X5.8091Y-2.4824
X5.819Y-3.6931
X5.8191Y-3.6412
X5.8524Y-2.9175
X5.8682Y-3.506
X5.8682Y-3.5553
X5.8682Y-3.6045
X5.8682Y-3.6537
X5.8918Y-2.9568
X5.8918Y-3.0671
X5.9469Y-3.9332
X5.9863Y-3.0671
X6.0414Y-2.9568
X6.065Y-3.6104
X6.065Y-3.7285
X6.1051Y-2.5152
X6.128Y-3.9332
X6.1571Y-2.5152
X6.1701Y-3.0297
X6.1726Y-2.9697
X6.1733Y-2.7383
X6.1733Y-2.7974
X6.1831Y-3.3427
X6.2031Y-2.515
X6.2146Y-3.4608
X6.2146Y-3.6104
X6.2146Y-3.7206
X6.2225Y-2.7383
X6.2225Y-2.7974
X6.2276Y-2.9697
X6.2276Y-3.0297
X6.2717Y-2.7383
X6.2717Y-2.7974
X6.2801Y-2.9697
X6.2801Y-3.0297
X6.2914Y-2.4923
X6.3091Y-3.9332
X6.3111Y-2.5415
X6.3209Y-2.7383
X6.3209Y-2.7974
X6.3251Y-2.9697
X6.3251Y-3.0297
X6.3505Y-2.4923
X6.3505Y-2.5415
X6.3701Y-2.9697
X6.3701Y-3.0297
X6.3701Y-2.7383
X6.3701Y-2.7974
T2
X5.56Y-3.12
X5.66Y-3.12
X5.7251Y-2.6372
X5.7251Y-2.7372
X5.76Y-3.12
T3
X5.3745Y-3.7521
X5.5745Y-3.7521
X5.9827Y-3.1693
X6.1827Y-3.1693
T4
X5.002Y-2.8269
X5.9666Y-2.8269
T0
M30
