G04 #@! TF.FileFunction,Soldermask,Top*
%FSLAX46Y46*%
G04 Gerber Fmt 4.6, Leading zero omitted, Abs format (unit mm)*
G04 Created by KiCad (PCBNEW 4.0.0-2.201511301921+6191~38~ubuntu15.10.1-stable) date to 10. joulukuuta 2015 21.00.12*
%MOMM*%
G01*
G04 APERTURE LIST*
%ADD10C,0.100000*%
G04 APERTURE END LIST*
D10*
G36*
X122112900Y-100429900D02*
X120208100Y-100429900D01*
X120208100Y-97945100D01*
X122112900Y-97945100D01*
X122112900Y-100429900D01*
X122112900Y-100429900D01*
G37*
G36*
X141740904Y-93882045D02*
X142014147Y-93938135D01*
X142271305Y-94046234D01*
X142502562Y-94202219D01*
X142699117Y-94400150D01*
X142853482Y-94632490D01*
X142959781Y-94890389D01*
X143013893Y-95163677D01*
X143013893Y-95163683D01*
X143013961Y-95164027D01*
X143009512Y-95482637D01*
X143009435Y-95482975D01*
X143009435Y-95482983D01*
X142947713Y-95754655D01*
X142834257Y-96009482D01*
X142673461Y-96237423D01*
X142471455Y-96429791D01*
X142235932Y-96579259D01*
X141975861Y-96680134D01*
X141701155Y-96728572D01*
X141422267Y-96722730D01*
X141149825Y-96662830D01*
X140894208Y-96551153D01*
X140665154Y-96391956D01*
X140471381Y-96191298D01*
X140320272Y-95956823D01*
X140217582Y-95697460D01*
X140167229Y-95423102D01*
X140171123Y-95144180D01*
X140229120Y-94871326D01*
X140339008Y-94614938D01*
X140496605Y-94384774D01*
X140695904Y-94189605D01*
X140929319Y-94036863D01*
X141187955Y-93932367D01*
X141461958Y-93880098D01*
X141740904Y-93882045D01*
X141740904Y-93882045D01*
G37*
G36*
X137933900Y-96725900D02*
X135089100Y-96725900D01*
X135089100Y-93881100D01*
X137933900Y-93881100D01*
X137933900Y-96725900D01*
X137933900Y-96725900D01*
G37*
G36*
X122112900Y-93429900D02*
X120208100Y-93429900D01*
X120208100Y-90945100D01*
X122112900Y-90945100D01*
X122112900Y-93429900D01*
X122112900Y-93429900D01*
G37*
G36*
X142103220Y-92273120D02*
X139497180Y-92273120D01*
X139497180Y-89468960D01*
X142103220Y-89468960D01*
X142103220Y-92273120D01*
X142103220Y-92273120D01*
G37*
G36*
X148316060Y-91781630D02*
X147310220Y-91781630D01*
X147310220Y-89975690D01*
X148316060Y-89975690D01*
X148316060Y-91781630D01*
X148316060Y-91781630D01*
G37*
G36*
X146964780Y-87864300D02*
X146966791Y-87878453D01*
X146973332Y-87892507D01*
X147346936Y-88451965D01*
X147356465Y-88462614D01*
X147368588Y-88470190D01*
X147389179Y-88474550D01*
X147463890Y-88474550D01*
X147463890Y-88611698D01*
X147465901Y-88625851D01*
X147472443Y-88639907D01*
X147597790Y-88827610D01*
X147514690Y-88827610D01*
X147500537Y-88829621D01*
X147487506Y-88835496D01*
X147476626Y-88844768D01*
X147468761Y-88856704D01*
X147464532Y-88870359D01*
X147463890Y-88878410D01*
X147463890Y-89175590D01*
X147465901Y-89189743D01*
X147471776Y-89202774D01*
X147481048Y-89213654D01*
X147492984Y-89221519D01*
X147506639Y-89225748D01*
X147514690Y-89226390D01*
X147597790Y-89226390D01*
X147472442Y-89414093D01*
X147466257Y-89426977D01*
X147463890Y-89442302D01*
X147463890Y-89579450D01*
X147389179Y-89579450D01*
X147375026Y-89581461D01*
X147361995Y-89587336D01*
X147346935Y-89602036D01*
X146973331Y-90161494D01*
X146967147Y-90174375D01*
X146964780Y-90189700D01*
X146964780Y-91781630D01*
X145659220Y-91781630D01*
X145659220Y-90189700D01*
X145657209Y-90175547D01*
X145650668Y-90161493D01*
X145277064Y-89602035D01*
X145267535Y-89591386D01*
X145255412Y-89583810D01*
X145234821Y-89579450D01*
X145160110Y-89579450D01*
X145160110Y-89442302D01*
X145158099Y-89428149D01*
X145151557Y-89414093D01*
X145026210Y-89226390D01*
X145109310Y-89226390D01*
X145123463Y-89224379D01*
X145136494Y-89218504D01*
X145147374Y-89209232D01*
X145155239Y-89197296D01*
X145159468Y-89183641D01*
X145160110Y-89175590D01*
X145160110Y-88878410D01*
X145158099Y-88864257D01*
X145152224Y-88851226D01*
X145142952Y-88840346D01*
X145131016Y-88832481D01*
X145117361Y-88828252D01*
X145109310Y-88827610D01*
X145026210Y-88827610D01*
X145151558Y-88639907D01*
X145157743Y-88627023D01*
X145160110Y-88611698D01*
X145160110Y-88474550D01*
X145234821Y-88474550D01*
X145248974Y-88472539D01*
X145262005Y-88466664D01*
X145277065Y-88451964D01*
X145650669Y-87892506D01*
X145656853Y-87879625D01*
X145659220Y-87864300D01*
X145659220Y-86272370D01*
X146964780Y-86272370D01*
X146964780Y-87864300D01*
X146964780Y-87864300D01*
G37*
G36*
X145313780Y-91781630D02*
X144307940Y-91781630D01*
X144307940Y-89975690D01*
X145313780Y-89975690D01*
X145313780Y-91781630D01*
X145313780Y-91781630D01*
G37*
G36*
X122112900Y-90650900D02*
X120208100Y-90650900D01*
X120208100Y-88166100D01*
X122112900Y-88166100D01*
X122112900Y-90650900D01*
X122112900Y-90650900D01*
G37*
G36*
X150861900Y-89203900D02*
X149657100Y-89203900D01*
X149657100Y-87199100D01*
X150861900Y-87199100D01*
X150861900Y-89203900D01*
X150861900Y-89203900D01*
G37*
G36*
X153761900Y-89203900D02*
X152557100Y-89203900D01*
X152557100Y-87199100D01*
X153761900Y-87199100D01*
X153761900Y-89203900D01*
X153761900Y-89203900D01*
G37*
G36*
X137561700Y-88259920D02*
X134356220Y-88259920D01*
X134356220Y-82555080D01*
X137561700Y-82555080D01*
X137561700Y-88259920D01*
X137561700Y-88259920D01*
G37*
G36*
X127660780Y-88259920D02*
X124455300Y-88259920D01*
X124455300Y-82555080D01*
X127660780Y-82555080D01*
X127660780Y-88259920D01*
X127660780Y-88259920D01*
G37*
G36*
X148316060Y-88078310D02*
X147310220Y-88078310D01*
X147310220Y-86272370D01*
X148316060Y-86272370D01*
X148316060Y-88078310D01*
X148316060Y-88078310D01*
G37*
G36*
X145313780Y-88078310D02*
X144307940Y-88078310D01*
X144307940Y-86272370D01*
X145313780Y-86272370D01*
X145313780Y-88078310D01*
X145313780Y-88078310D01*
G37*
G36*
X142103220Y-87975440D02*
X139497180Y-87975440D01*
X139497180Y-85171280D01*
X142103220Y-85171280D01*
X142103220Y-87975440D01*
X142103220Y-87975440D01*
G37*
G36*
X145439000Y-84645400D02*
X144134200Y-84645400D01*
X144134200Y-82740600D01*
X145439000Y-82740600D01*
X145439000Y-84645400D01*
X145439000Y-84645400D01*
G37*
G36*
X148439000Y-84645400D02*
X147134200Y-84645400D01*
X147134200Y-82740600D01*
X148439000Y-82740600D01*
X148439000Y-84645400D01*
X148439000Y-84645400D01*
G37*
G36*
X122112900Y-83650900D02*
X120208100Y-83650900D01*
X120208100Y-81166100D01*
X122112900Y-81166100D01*
X122112900Y-83650900D01*
X122112900Y-83650900D01*
G37*
G36*
X157189404Y-79078545D02*
X157462647Y-79134635D01*
X157719805Y-79242734D01*
X157951062Y-79398719D01*
X158147617Y-79596650D01*
X158301982Y-79828990D01*
X158408281Y-80086889D01*
X158462393Y-80360177D01*
X158462393Y-80360183D01*
X158462461Y-80360527D01*
X158458012Y-80679137D01*
X158457935Y-80679475D01*
X158457935Y-80679483D01*
X158396213Y-80951155D01*
X158282757Y-81205982D01*
X158121961Y-81433923D01*
X157919955Y-81626291D01*
X157684432Y-81775759D01*
X157424361Y-81876634D01*
X157149655Y-81925072D01*
X156870767Y-81919230D01*
X156598325Y-81859330D01*
X156342708Y-81747653D01*
X156113654Y-81588456D01*
X155919881Y-81387798D01*
X155768772Y-81153323D01*
X155666082Y-80893960D01*
X155615729Y-80619602D01*
X155619623Y-80340680D01*
X155677620Y-80067826D01*
X155787508Y-79811438D01*
X155945105Y-79581274D01*
X156144404Y-79386105D01*
X156377819Y-79233363D01*
X156636455Y-79128867D01*
X156910458Y-79076598D01*
X157189404Y-79078545D01*
X157189404Y-79078545D01*
G37*
G36*
X153382400Y-81922400D02*
X150537600Y-81922400D01*
X150537600Y-79077600D01*
X153382400Y-79077600D01*
X153382400Y-81922400D01*
X153382400Y-81922400D01*
G37*
G36*
X122778900Y-80837900D02*
X121574100Y-80837900D01*
X121574100Y-80033100D01*
X122778900Y-80033100D01*
X122778900Y-80837900D01*
X122778900Y-80837900D01*
G37*
G36*
X120746900Y-80837900D02*
X119542100Y-80837900D01*
X119542100Y-80033100D01*
X120746900Y-80033100D01*
X120746900Y-80837900D01*
X120746900Y-80837900D01*
G37*
G36*
X143968248Y-78094692D02*
X143968258Y-78094695D01*
X143968295Y-78094699D01*
X144157716Y-78153334D01*
X144332140Y-78247645D01*
X144484924Y-78374039D01*
X144610248Y-78527701D01*
X144703339Y-78702779D01*
X144760650Y-78892605D01*
X144780000Y-79089947D01*
X144780000Y-79406087D01*
X144779916Y-79418183D01*
X144779915Y-79418189D01*
X144779901Y-79420239D01*
X144757798Y-79617291D01*
X144697842Y-79806298D01*
X144602315Y-79980059D01*
X144474858Y-80131957D01*
X144320324Y-80256206D01*
X144144600Y-80348072D01*
X143954379Y-80404057D01*
X143954343Y-80404060D01*
X143954334Y-80404063D01*
X143756909Y-80422030D01*
X143559752Y-80401308D01*
X143559742Y-80401305D01*
X143559705Y-80401301D01*
X143370284Y-80342666D01*
X143195860Y-80248355D01*
X143043076Y-80121961D01*
X142917752Y-79968299D01*
X142824661Y-79793221D01*
X142767350Y-79603395D01*
X142748000Y-79406053D01*
X142748000Y-79089913D01*
X142748084Y-79077817D01*
X142748085Y-79077811D01*
X142748099Y-79075761D01*
X142770202Y-78878709D01*
X142830158Y-78689702D01*
X142925685Y-78515941D01*
X143053142Y-78364043D01*
X143207676Y-78239794D01*
X143383400Y-78147928D01*
X143573621Y-78091943D01*
X143573657Y-78091940D01*
X143573666Y-78091937D01*
X143771091Y-78073970D01*
X143968248Y-78094692D01*
X143968248Y-78094692D01*
G37*
G36*
X141428248Y-78094692D02*
X141428258Y-78094695D01*
X141428295Y-78094699D01*
X141617716Y-78153334D01*
X141792140Y-78247645D01*
X141944924Y-78374039D01*
X142070248Y-78527701D01*
X142163339Y-78702779D01*
X142220650Y-78892605D01*
X142240000Y-79089947D01*
X142240000Y-79406087D01*
X142239916Y-79418183D01*
X142239915Y-79418189D01*
X142239901Y-79420239D01*
X142217798Y-79617291D01*
X142157842Y-79806298D01*
X142062315Y-79980059D01*
X141934858Y-80131957D01*
X141780324Y-80256206D01*
X141604600Y-80348072D01*
X141414379Y-80404057D01*
X141414343Y-80404060D01*
X141414334Y-80404063D01*
X141216909Y-80422030D01*
X141019752Y-80401308D01*
X141019742Y-80401305D01*
X141019705Y-80401301D01*
X140830284Y-80342666D01*
X140655860Y-80248355D01*
X140503076Y-80121961D01*
X140377752Y-79968299D01*
X140284661Y-79793221D01*
X140227350Y-79603395D01*
X140208000Y-79406053D01*
X140208000Y-79089913D01*
X140208084Y-79077817D01*
X140208085Y-79077811D01*
X140208099Y-79075761D01*
X140230202Y-78878709D01*
X140290158Y-78689702D01*
X140385685Y-78515941D01*
X140513142Y-78364043D01*
X140667676Y-78239794D01*
X140843400Y-78147928D01*
X141033621Y-78091943D01*
X141033657Y-78091940D01*
X141033666Y-78091937D01*
X141231091Y-78073970D01*
X141428248Y-78094692D01*
X141428248Y-78094692D01*
G37*
G36*
X147320000Y-80416400D02*
X145288000Y-80416400D01*
X145288000Y-78079600D01*
X147320000Y-78079600D01*
X147320000Y-80416400D01*
X147320000Y-80416400D01*
G37*
G36*
X122778900Y-79337900D02*
X121574100Y-79337900D01*
X121574100Y-78533100D01*
X122778900Y-78533100D01*
X122778900Y-79337900D01*
X122778900Y-79337900D01*
G37*
G36*
X120746900Y-79337900D02*
X119542100Y-79337900D01*
X119542100Y-78533100D01*
X120746900Y-78533100D01*
X120746900Y-79337900D01*
X120746900Y-79337900D01*
G37*
G36*
X136936900Y-77415900D02*
X135732100Y-77415900D01*
X135732100Y-76611100D01*
X136936900Y-76611100D01*
X136936900Y-77415900D01*
X136936900Y-77415900D01*
G37*
G36*
X142653400Y-76981400D02*
X141548600Y-76981400D01*
X141548600Y-75926600D01*
X142653400Y-75926600D01*
X142653400Y-76981400D01*
X142653400Y-76981400D01*
G37*
G36*
X141153400Y-76981400D02*
X140048600Y-76981400D01*
X140048600Y-75926600D01*
X141153400Y-75926600D01*
X141153400Y-76981400D01*
X141153400Y-76981400D01*
G37*
G36*
X121737400Y-76263400D02*
X120832600Y-76263400D01*
X120832600Y-73758600D01*
X121737400Y-73758600D01*
X121737400Y-76263400D01*
X121737400Y-76263400D01*
G37*
G36*
X120467400Y-76263400D02*
X119562600Y-76263400D01*
X119562600Y-73758600D01*
X120467400Y-73758600D01*
X120467400Y-76263400D01*
X120467400Y-76263400D01*
G37*
G36*
X119197400Y-76263400D02*
X118292600Y-76263400D01*
X118292600Y-73758600D01*
X119197400Y-73758600D01*
X119197400Y-76263400D01*
X119197400Y-76263400D01*
G37*
G36*
X117927400Y-76263400D02*
X117022600Y-76263400D01*
X117022600Y-73758600D01*
X117927400Y-73758600D01*
X117927400Y-76263400D01*
X117927400Y-76263400D01*
G37*
G36*
X136936900Y-75915900D02*
X135732100Y-75915900D01*
X135732100Y-75111100D01*
X136936900Y-75111100D01*
X136936900Y-75915900D01*
X136936900Y-75915900D01*
G37*
G36*
X143684400Y-75466400D02*
X141979600Y-75466400D01*
X141979600Y-72361600D01*
X143684400Y-72361600D01*
X143684400Y-75466400D01*
X143684400Y-75466400D01*
G37*
G36*
X141484400Y-75466400D02*
X139779600Y-75466400D01*
X139779600Y-72361600D01*
X141484400Y-72361600D01*
X141484400Y-75466400D01*
X141484400Y-75466400D01*
G37*
G36*
X131466900Y-74587100D02*
X130412100Y-74587100D01*
X130412100Y-73482300D01*
X131466900Y-73482300D01*
X131466900Y-74587100D01*
X131466900Y-74587100D01*
G37*
G36*
X160981200Y-74470400D02*
X157018800Y-74470400D01*
X157018800Y-72133600D01*
X160981200Y-72133600D01*
X160981200Y-74470400D01*
X160981200Y-74470400D01*
G37*
G36*
X151777579Y-69652532D02*
X152191058Y-69737407D01*
X152580190Y-69900983D01*
X152930132Y-70137023D01*
X153227564Y-70436537D01*
X153461152Y-70788118D01*
X153622005Y-71178375D01*
X153703924Y-71592097D01*
X153703993Y-71592446D01*
X153697261Y-72074573D01*
X153697183Y-72074916D01*
X153697183Y-72074919D01*
X153603744Y-72486194D01*
X153432059Y-72871804D01*
X153188741Y-73216728D01*
X152883062Y-73507822D01*
X152526666Y-73733999D01*
X152133122Y-73886644D01*
X151717431Y-73959942D01*
X151295414Y-73951102D01*
X150883152Y-73860460D01*
X150496347Y-73691469D01*
X150149737Y-73450569D01*
X149856516Y-73146930D01*
X149627857Y-72792119D01*
X149472466Y-72399649D01*
X149396269Y-71984482D01*
X149402162Y-71562414D01*
X149489924Y-71149528D01*
X149656209Y-70761556D01*
X149894687Y-70413268D01*
X150196270Y-70117936D01*
X150549476Y-69886804D01*
X150940849Y-69728679D01*
X151355476Y-69649585D01*
X151777579Y-69652532D01*
X151777579Y-69652532D01*
G37*
G36*
X127277579Y-69652532D02*
X127691058Y-69737407D01*
X128080190Y-69900983D01*
X128430132Y-70137023D01*
X128727564Y-70436537D01*
X128961152Y-70788118D01*
X129122005Y-71178375D01*
X129203924Y-71592097D01*
X129203993Y-71592446D01*
X129197261Y-72074573D01*
X129197183Y-72074916D01*
X129197183Y-72074919D01*
X129103744Y-72486194D01*
X128932059Y-72871804D01*
X128688741Y-73216728D01*
X128383062Y-73507822D01*
X128026666Y-73733999D01*
X127633122Y-73886644D01*
X127217431Y-73959942D01*
X126795414Y-73951102D01*
X126383152Y-73860460D01*
X125996347Y-73691469D01*
X125649737Y-73450569D01*
X125356516Y-73146930D01*
X125127857Y-72792119D01*
X124972466Y-72399649D01*
X124896269Y-71984482D01*
X124902162Y-71562414D01*
X124989924Y-71149528D01*
X125156209Y-70761556D01*
X125394687Y-70413268D01*
X125696270Y-70117936D01*
X126049476Y-69886804D01*
X126440849Y-69728679D01*
X126855476Y-69649585D01*
X127277579Y-69652532D01*
X127277579Y-69652532D01*
G37*
G36*
X134051900Y-73828900D02*
X133751100Y-73828900D01*
X133751100Y-73078100D01*
X134051900Y-73078100D01*
X134051900Y-73828900D01*
X134051900Y-73828900D01*
G37*
G36*
X137551900Y-73828900D02*
X137251100Y-73828900D01*
X137251100Y-73078100D01*
X137551900Y-73078100D01*
X137551900Y-73828900D01*
X137551900Y-73828900D01*
G37*
G36*
X137051900Y-73828900D02*
X136751100Y-73828900D01*
X136751100Y-73078100D01*
X137051900Y-73078100D01*
X137051900Y-73828900D01*
X137051900Y-73828900D01*
G37*
G36*
X136551900Y-73828900D02*
X136251100Y-73828900D01*
X136251100Y-73078100D01*
X136551900Y-73078100D01*
X136551900Y-73828900D01*
X136551900Y-73828900D01*
G37*
G36*
X136051900Y-73828900D02*
X135751100Y-73828900D01*
X135751100Y-73078100D01*
X136051900Y-73078100D01*
X136051900Y-73828900D01*
X136051900Y-73828900D01*
G37*
G36*
X135551900Y-73828900D02*
X135251100Y-73828900D01*
X135251100Y-73078100D01*
X135551900Y-73078100D01*
X135551900Y-73828900D01*
X135551900Y-73828900D01*
G37*
G36*
X135051900Y-73828900D02*
X134751100Y-73828900D01*
X134751100Y-73078100D01*
X135051900Y-73078100D01*
X135051900Y-73828900D01*
X135051900Y-73828900D01*
G37*
G36*
X134551900Y-73828900D02*
X134251100Y-73828900D01*
X134251100Y-73078100D01*
X134551900Y-73078100D01*
X134551900Y-73828900D01*
X134551900Y-73828900D01*
G37*
G36*
X146590400Y-73679400D02*
X145485600Y-73679400D01*
X145485600Y-72624600D01*
X146590400Y-72624600D01*
X146590400Y-73679400D01*
X146590400Y-73679400D01*
G37*
G36*
X145090400Y-73679400D02*
X143985600Y-73679400D01*
X143985600Y-72624600D01*
X145090400Y-72624600D01*
X145090400Y-73679400D01*
X145090400Y-73679400D01*
G37*
G36*
X131466900Y-73087100D02*
X130412100Y-73087100D01*
X130412100Y-71982300D01*
X131466900Y-71982300D01*
X131466900Y-73087100D01*
X131466900Y-73087100D01*
G37*
G36*
X133626900Y-72953900D02*
X132876100Y-72953900D01*
X132876100Y-72653100D01*
X133626900Y-72653100D01*
X133626900Y-72953900D01*
X133626900Y-72953900D01*
G37*
G36*
X138426900Y-72953900D02*
X137676100Y-72953900D01*
X137676100Y-72653100D01*
X138426900Y-72653100D01*
X138426900Y-72953900D01*
X138426900Y-72953900D01*
G37*
G36*
X137401900Y-72803900D02*
X133901100Y-72803900D01*
X133901100Y-69303100D01*
X137401900Y-69303100D01*
X137401900Y-72803900D01*
X137401900Y-72803900D01*
G37*
G36*
X138426900Y-72453900D02*
X137676100Y-72453900D01*
X137676100Y-72153100D01*
X138426900Y-72153100D01*
X138426900Y-72453900D01*
X138426900Y-72453900D01*
G37*
G36*
X133626900Y-72453900D02*
X132876100Y-72453900D01*
X132876100Y-72153100D01*
X133626900Y-72153100D01*
X133626900Y-72453900D01*
X133626900Y-72453900D01*
G37*
G36*
X138426900Y-71953900D02*
X137676100Y-71953900D01*
X137676100Y-71653100D01*
X138426900Y-71653100D01*
X138426900Y-71953900D01*
X138426900Y-71953900D01*
G37*
G36*
X133626900Y-71953900D02*
X132876100Y-71953900D01*
X132876100Y-71653100D01*
X133626900Y-71653100D01*
X133626900Y-71953900D01*
X133626900Y-71953900D01*
G37*
G36*
X138426900Y-71453900D02*
X137676100Y-71453900D01*
X137676100Y-71153100D01*
X138426900Y-71153100D01*
X138426900Y-71453900D01*
X138426900Y-71453900D01*
G37*
G36*
X133626900Y-71453900D02*
X132876100Y-71453900D01*
X132876100Y-71153100D01*
X133626900Y-71153100D01*
X133626900Y-71453900D01*
X133626900Y-71453900D01*
G37*
G36*
X140137400Y-71075900D02*
X139032600Y-71075900D01*
X139032600Y-70021100D01*
X140137400Y-70021100D01*
X140137400Y-71075900D01*
X140137400Y-71075900D01*
G37*
G36*
X141637400Y-71075900D02*
X140532600Y-71075900D01*
X140532600Y-70021100D01*
X141637400Y-70021100D01*
X141637400Y-71075900D01*
X141637400Y-71075900D01*
G37*
G36*
X138426900Y-70953900D02*
X137676100Y-70953900D01*
X137676100Y-70653100D01*
X138426900Y-70653100D01*
X138426900Y-70953900D01*
X138426900Y-70953900D01*
G37*
G36*
X133626900Y-70953900D02*
X132876100Y-70953900D01*
X132876100Y-70653100D01*
X133626900Y-70653100D01*
X133626900Y-70953900D01*
X133626900Y-70953900D01*
G37*
G36*
X146585900Y-70693900D02*
X144249100Y-70693900D01*
X144249100Y-68357100D01*
X146585900Y-68357100D01*
X146585900Y-70693900D01*
X146585900Y-70693900D01*
G37*
G36*
X121737400Y-70513400D02*
X120832600Y-70513400D01*
X120832600Y-68008600D01*
X121737400Y-68008600D01*
X121737400Y-70513400D01*
X121737400Y-70513400D01*
G37*
G36*
X120467400Y-70513400D02*
X119562600Y-70513400D01*
X119562600Y-68008600D01*
X120467400Y-68008600D01*
X120467400Y-70513400D01*
X120467400Y-70513400D01*
G37*
G36*
X119197400Y-70513400D02*
X118292600Y-70513400D01*
X118292600Y-68008600D01*
X119197400Y-68008600D01*
X119197400Y-70513400D01*
X119197400Y-70513400D01*
G37*
G36*
X117927400Y-70513400D02*
X117022600Y-70513400D01*
X117022600Y-68008600D01*
X117927400Y-68008600D01*
X117927400Y-70513400D01*
X117927400Y-70513400D01*
G37*
G36*
X138426900Y-70453900D02*
X137676100Y-70453900D01*
X137676100Y-70153100D01*
X138426900Y-70153100D01*
X138426900Y-70453900D01*
X138426900Y-70453900D01*
G37*
G36*
X133626900Y-70453900D02*
X132876100Y-70453900D01*
X132876100Y-70153100D01*
X133626900Y-70153100D01*
X133626900Y-70453900D01*
X133626900Y-70453900D01*
G37*
G36*
X131873300Y-70370700D02*
X130818500Y-70370700D01*
X130818500Y-69265900D01*
X131873300Y-69265900D01*
X131873300Y-70370700D01*
X131873300Y-70370700D01*
G37*
G36*
X138426900Y-69953900D02*
X137676100Y-69953900D01*
X137676100Y-69653100D01*
X138426900Y-69653100D01*
X138426900Y-69953900D01*
X138426900Y-69953900D01*
G37*
G36*
X133626900Y-69953900D02*
X132876100Y-69953900D01*
X132876100Y-69653100D01*
X133626900Y-69653100D01*
X133626900Y-69953900D01*
X133626900Y-69953900D01*
G37*
G36*
X138426900Y-69453900D02*
X137676100Y-69453900D01*
X137676100Y-69153100D01*
X138426900Y-69153100D01*
X138426900Y-69453900D01*
X138426900Y-69453900D01*
G37*
G36*
X133626900Y-69453900D02*
X132876100Y-69453900D01*
X132876100Y-69153100D01*
X133626900Y-69153100D01*
X133626900Y-69453900D01*
X133626900Y-69453900D01*
G37*
G36*
X141360400Y-69436400D02*
X140555600Y-69436400D01*
X140555600Y-68231600D01*
X141360400Y-68231600D01*
X141360400Y-69436400D01*
X141360400Y-69436400D01*
G37*
G36*
X139860400Y-69436400D02*
X139055600Y-69436400D01*
X139055600Y-68231600D01*
X139860400Y-68231600D01*
X139860400Y-69436400D01*
X139860400Y-69436400D01*
G37*
G36*
X136551900Y-69028900D02*
X136251100Y-69028900D01*
X136251100Y-68278100D01*
X136551900Y-68278100D01*
X136551900Y-69028900D01*
X136551900Y-69028900D01*
G37*
G36*
X137051900Y-69028900D02*
X136751100Y-69028900D01*
X136751100Y-68278100D01*
X137051900Y-68278100D01*
X137051900Y-69028900D01*
X137051900Y-69028900D01*
G37*
G36*
X136051900Y-69028900D02*
X135751100Y-69028900D01*
X135751100Y-68278100D01*
X136051900Y-68278100D01*
X136051900Y-69028900D01*
X136051900Y-69028900D01*
G37*
G36*
X135551900Y-69028900D02*
X135251100Y-69028900D01*
X135251100Y-68278100D01*
X135551900Y-68278100D01*
X135551900Y-69028900D01*
X135551900Y-69028900D01*
G37*
G36*
X134551900Y-69028900D02*
X134251100Y-69028900D01*
X134251100Y-68278100D01*
X134551900Y-68278100D01*
X134551900Y-69028900D01*
X134551900Y-69028900D01*
G37*
G36*
X135051900Y-69028900D02*
X134751100Y-69028900D01*
X134751100Y-68278100D01*
X135051900Y-68278100D01*
X135051900Y-69028900D01*
X135051900Y-69028900D01*
G37*
G36*
X134051900Y-69028900D02*
X133751100Y-69028900D01*
X133751100Y-68278100D01*
X134051900Y-68278100D01*
X134051900Y-69028900D01*
X134051900Y-69028900D01*
G37*
G36*
X137551900Y-69028900D02*
X137251100Y-69028900D01*
X137251100Y-68278100D01*
X137551900Y-68278100D01*
X137551900Y-69028900D01*
X137551900Y-69028900D01*
G37*
G36*
X131873300Y-68870700D02*
X130818500Y-68870700D01*
X130818500Y-67765900D01*
X131873300Y-67765900D01*
X131873300Y-68870700D01*
X131873300Y-68870700D01*
G37*
G36*
X153953900Y-68255900D02*
X152649100Y-68255900D01*
X152649100Y-66351100D01*
X153953900Y-66351100D01*
X153953900Y-68255900D01*
X153953900Y-68255900D01*
G37*
G36*
X150953900Y-68255900D02*
X149649100Y-68255900D01*
X149649100Y-66351100D01*
X150953900Y-66351100D01*
X150953900Y-68255900D01*
X150953900Y-68255900D01*
G37*
G36*
X145437411Y-65817199D02*
X145437417Y-65817200D01*
X145439466Y-65817214D01*
X145666077Y-65842632D01*
X145883435Y-65911582D01*
X146083260Y-66021437D01*
X146257943Y-66168013D01*
X146400828Y-66345727D01*
X146506475Y-66547810D01*
X146570857Y-66766564D01*
X146570860Y-66766595D01*
X146570864Y-66766609D01*
X146591526Y-66993654D01*
X146567695Y-67220392D01*
X146567693Y-67220397D01*
X146567689Y-67220439D01*
X146500258Y-67438273D01*
X146391800Y-67638861D01*
X146246448Y-67814562D01*
X146069736Y-67958685D01*
X145868396Y-68065740D01*
X145650096Y-68131648D01*
X145423153Y-68153900D01*
X145411813Y-68153900D01*
X145397589Y-68153801D01*
X145397583Y-68153800D01*
X145395534Y-68153786D01*
X145168923Y-68128368D01*
X144951565Y-68059418D01*
X144751740Y-67949563D01*
X144577057Y-67802987D01*
X144434172Y-67625273D01*
X144328525Y-67423190D01*
X144264143Y-67204436D01*
X144264140Y-67204405D01*
X144264136Y-67204391D01*
X144243474Y-66977346D01*
X144267305Y-66750608D01*
X144267307Y-66750603D01*
X144267311Y-66750561D01*
X144334742Y-66532727D01*
X144443200Y-66332139D01*
X144588552Y-66156438D01*
X144765264Y-66012315D01*
X144966604Y-65905260D01*
X145184904Y-65839352D01*
X145411847Y-65817100D01*
X145423187Y-65817100D01*
X145437411Y-65817199D01*
X145437411Y-65817199D01*
G37*
G36*
X143354100Y-67932300D02*
X142299300Y-67932300D01*
X142299300Y-66827500D01*
X143354100Y-66827500D01*
X143354100Y-67932300D01*
X143354100Y-67932300D01*
G37*
G36*
X161946400Y-67866400D02*
X160625600Y-67866400D01*
X160625600Y-65529600D01*
X161946400Y-65529600D01*
X161946400Y-67866400D01*
X161946400Y-67866400D01*
G37*
G36*
X159660400Y-67866400D02*
X158339600Y-67866400D01*
X158339600Y-65529600D01*
X159660400Y-65529600D01*
X159660400Y-67866400D01*
X159660400Y-67866400D01*
G37*
G36*
X157374400Y-67866400D02*
X156053600Y-67866400D01*
X156053600Y-65529600D01*
X157374400Y-65529600D01*
X157374400Y-67866400D01*
X157374400Y-67866400D01*
G37*
G36*
X138820400Y-67658400D02*
X138015600Y-67658400D01*
X138015600Y-66453600D01*
X138820400Y-66453600D01*
X138820400Y-67658400D01*
X138820400Y-67658400D01*
G37*
G36*
X137320400Y-67658400D02*
X136515600Y-67658400D01*
X136515600Y-66453600D01*
X137320400Y-66453600D01*
X137320400Y-67658400D01*
X137320400Y-67658400D01*
G37*
G36*
X135414400Y-67329400D02*
X134309600Y-67329400D01*
X134309600Y-66274600D01*
X135414400Y-66274600D01*
X135414400Y-67329400D01*
X135414400Y-67329400D01*
G37*
G36*
X133914400Y-67329400D02*
X132809600Y-67329400D01*
X132809600Y-66274600D01*
X133914400Y-66274600D01*
X133914400Y-67329400D01*
X133914400Y-67329400D01*
G37*
G36*
X118002400Y-67151900D02*
X116947600Y-67151900D01*
X116947600Y-66047100D01*
X118002400Y-66047100D01*
X118002400Y-67151900D01*
X118002400Y-67151900D01*
G37*
G36*
X143354100Y-66432300D02*
X142299300Y-66432300D01*
X142299300Y-65327500D01*
X143354100Y-65327500D01*
X143354100Y-66432300D01*
X143354100Y-66432300D01*
G37*
G36*
X137433400Y-66008900D02*
X136378600Y-66008900D01*
X136378600Y-64904100D01*
X137433400Y-64904100D01*
X137433400Y-66008900D01*
X137433400Y-66008900D01*
G37*
G36*
X150953900Y-65755900D02*
X149649100Y-65755900D01*
X149649100Y-63851100D01*
X150953900Y-63851100D01*
X150953900Y-65755900D01*
X150953900Y-65755900D01*
G37*
G36*
X153953900Y-65755900D02*
X152649100Y-65755900D01*
X152649100Y-63851100D01*
X153953900Y-63851100D01*
X153953900Y-65755900D01*
X153953900Y-65755900D01*
G37*
G36*
X118002400Y-65651900D02*
X116947600Y-65651900D01*
X116947600Y-64547100D01*
X118002400Y-64547100D01*
X118002400Y-65651900D01*
X118002400Y-65651900D01*
G37*
G36*
X130803900Y-65455900D02*
X129499100Y-65455900D01*
X129499100Y-63551100D01*
X130803900Y-63551100D01*
X130803900Y-65455900D01*
X130803900Y-65455900D01*
G37*
G36*
X133803900Y-65455900D02*
X132499100Y-65455900D01*
X132499100Y-63551100D01*
X133803900Y-63551100D01*
X133803900Y-65455900D01*
X133803900Y-65455900D01*
G37*
G36*
X144741100Y-64895500D02*
X143936300Y-64895500D01*
X143936300Y-63690700D01*
X144741100Y-63690700D01*
X144741100Y-64895500D01*
X144741100Y-64895500D01*
G37*
G36*
X146035100Y-64895500D02*
X145230300Y-64895500D01*
X145230300Y-63690700D01*
X146035100Y-63690700D01*
X146035100Y-64895500D01*
X146035100Y-64895500D01*
G37*
G36*
X143241100Y-64895500D02*
X142436300Y-64895500D01*
X142436300Y-63690700D01*
X143241100Y-63690700D01*
X143241100Y-64895500D01*
X143241100Y-64895500D01*
G37*
G36*
X147535100Y-64895500D02*
X146730300Y-64895500D01*
X146730300Y-63690700D01*
X147535100Y-63690700D01*
X147535100Y-64895500D01*
X147535100Y-64895500D01*
G37*
G36*
X138844400Y-64546900D02*
X138039600Y-64546900D01*
X138039600Y-63342100D01*
X138844400Y-63342100D01*
X138844400Y-64546900D01*
X138844400Y-64546900D01*
G37*
G36*
X140344400Y-64546900D02*
X139539600Y-64546900D01*
X139539600Y-63342100D01*
X140344400Y-63342100D01*
X140344400Y-64546900D01*
X140344400Y-64546900D01*
G37*
G36*
X137433400Y-64508900D02*
X136378600Y-64508900D01*
X136378600Y-63404100D01*
X137433400Y-63404100D01*
X137433400Y-64508900D01*
X137433400Y-64508900D01*
G37*
M02*
